<svg width="30" height="30" viewBox="0 0 30 30" fill="none" xmlns="http://www.w3.org/2000/svg">
<path d="M2.694 3.14707C2.61521 3.08798 2.52555 3.04498 2.43014 3.02054C2.33473 2.99609 2.23544 2.99068 2.13793 3.00461C2.04043 3.01854 1.94663 3.05154 1.86188 3.10172C1.77713 3.1519 1.70309 3.21828 1.644 3.29707C1.58491 3.37587 1.54191 3.46553 1.51746 3.56094C1.49302 3.65635 1.48761 3.75564 1.50154 3.85314C1.51547 3.95064 1.54846 4.04444 1.59864 4.12919C1.64882 4.21394 1.71521 4.28798 1.794 4.34707L4.797 6.60007C4.87579 6.65917 4.96545 6.70216 5.06086 6.72661C5.15627 6.75105 5.25556 6.75646 5.35307 6.74254C5.45057 6.72861 5.54437 6.69561 5.62912 6.64543C5.71387 6.59525 5.78791 6.52887 5.847 6.45007C5.9061 6.37128 5.94909 6.28162 5.97354 6.18621C5.99798 6.0908 6.00339 5.99151 5.98946 5.89401C5.97553 5.79651 5.94254 5.7027 5.89236 5.61795C5.84218 5.5332 5.77579 5.45917 5.697 5.40007L2.694 3.14707ZM1.5 10.5001C1.30109 10.5001 1.11032 10.5791 0.96967 10.7197C0.829018 10.8604 0.75 11.0512 0.75 11.2501C0.75 11.449 0.829018 11.6398 0.96967 11.7804C1.11032 11.9211 1.30109 12.0001 1.5 12.0001H3.75C3.94891 12.0001 4.13968 11.9211 4.28033 11.7804C4.42098 11.6398 4.5 11.449 4.5 11.2501C4.5 11.0512 4.42098 10.8604 4.28033 10.7197C4.13968 10.5791 3.94891 10.5001 3.75 10.5001H1.5ZM14.997 3.00007C19.7205 3.00007 23.613 6.50107 23.973 11.0326L23.994 11.3656L24 11.7031L23.9985 17.0971L25.386 20.4301C25.4198 20.5111 25.4464 20.5949 25.4655 20.6806L25.4895 20.8096L25.5015 21.0061C25.4998 21.3371 25.3888 21.6582 25.1855 21.9195C24.9823 22.1808 24.6984 22.3675 24.378 22.4506L24.204 22.4911L24.0015 22.5061H18.75L18.7425 22.7461C18.6822 23.6977 18.2617 24.5906 17.5665 25.2432C16.8712 25.8958 15.9535 26.259 15 26.259C14.0465 26.259 13.1288 25.8958 12.4335 25.2432C11.7383 24.5906 11.3178 23.6977 11.2575 22.7461L11.25 22.5061H5.9985C5.86682 22.5064 5.73567 22.4893 5.6085 22.4551L5.4225 22.3906C5.11971 22.2629 4.8672 22.0394 4.70379 21.7543C4.54038 21.4692 4.47511 21.1384 4.518 20.8126L4.5495 20.6221L4.614 20.4301L5.9985 17.1001L6 11.6896L6.006 11.3536C6.1905 6.67507 10.1565 3.00007 14.997 3.00007ZM17.25 22.5061H12.75L12.7605 22.7176C12.811 23.237 13.0404 23.7227 13.4096 24.0915C13.7787 24.4604 14.2646 24.6895 14.784 24.7396L15 24.7501C15.5593 24.75 16.0986 24.5417 16.5126 24.1656C16.9267 23.7896 17.1858 23.2728 17.2395 22.7161L17.25 22.5061ZM14.997 4.50007C11.0625 4.50007 7.842 7.38457 7.527 11.0776L7.506 11.3956L7.5 11.7031V17.2501L7.443 17.5381L5.9985 21.0061L23.9355 21.0091L24.003 21.0061L22.557 17.5381L22.5 17.2501V11.7181L22.494 11.4121C22.3365 7.55107 19.0425 4.50007 14.997 4.50007ZM28.356 3.29707C28.2367 3.13794 28.059 3.03274 27.8621 3.00461C27.6652 2.97648 27.4651 3.02773 27.306 3.14707L24.303 5.40007C24.1439 5.51942 24.0387 5.69709 24.0105 5.89401C23.9824 6.09092 24.0337 6.29094 24.153 6.45007C24.2723 6.6092 24.45 6.7144 24.6469 6.74254C24.8438 6.77067 25.0439 6.71942 25.203 6.60007L28.206 4.34707C28.3651 4.22773 28.4703 4.05005 28.4985 3.85314C28.5266 3.65623 28.4753 3.4562 28.356 3.29707ZM29.25 11.2501C29.25 11.0512 29.171 10.8604 29.0303 10.7197C28.8897 10.5791 28.6989 10.5001 28.5 10.5001H26.25C26.0511 10.5001 25.8603 10.5791 25.7197 10.7197C25.579 10.8604 25.5 11.0512 25.5 11.2501C25.5 11.449 25.579 11.6398 25.7197 11.7804C25.8603 11.9211 26.0511 12.0001 26.25 12.0001H28.5C28.6989 12.0001 28.8897 11.9211 29.0303 11.7804C29.171 11.6398 29.25 11.449 29.25 11.2501Z" fill="white"/>
</svg>
