<svg width="228" height="84" viewBox="0 0 228 84" fill="none" xmlns="http://www.w3.org/2000/svg">
<path d="M34.688 34.28V39.88H42.208V43.432H34.688V49.352H43.168V53H30.208V30.632H43.168V34.28H34.688ZM54.9513 53.224C53.3939 53.224 51.9859 52.9573 50.7273 52.424C49.4899 51.8907 48.5086 51.1227 47.7833 50.12C47.0579 49.1173 46.6846 47.9333 46.6633 46.568H51.4633C51.5273 47.4853 51.8473 48.2107 52.4233 48.744C53.0206 49.2773 53.8313 49.544 54.8553 49.544C55.9006 49.544 56.7219 49.2987 57.3193 48.808C57.9166 48.296 58.2153 47.6347 58.2153 46.824C58.2153 46.1627 58.0126 45.6187 57.6073 45.192C57.2019 44.7653 56.6899 44.4347 56.0713 44.2C55.4739 43.944 54.6419 43.6667 53.5753 43.368C52.1246 42.9413 50.9406 42.5253 50.0233 42.12C49.1273 41.6933 48.3486 41.064 47.6873 40.232C47.0473 39.3787 46.7273 38.248 46.7273 36.84C46.7273 35.5173 47.0579 34.3653 47.7193 33.384C48.3806 32.4027 49.3086 31.656 50.5033 31.144C51.6979 30.6107 53.0633 30.344 54.5993 30.344C56.9033 30.344 58.7699 30.9093 60.1993 32.04C61.6499 33.1493 62.4499 34.7067 62.5993 36.712H57.6713C57.6286 35.944 57.2979 35.3147 56.6793 34.824C56.0819 34.312 55.2819 34.056 54.2793 34.056C53.4046 34.056 52.7006 34.28 52.1673 34.728C51.6553 35.176 51.3993 35.8267 51.3993 36.68C51.3993 37.2773 51.5913 37.7787 51.9753 38.184C52.3806 38.568 52.8713 38.888 53.4473 39.144C54.0446 39.3787 54.8766 39.656 55.9433 39.976C57.3939 40.4027 58.5779 40.8293 59.4953 41.256C60.4126 41.6827 61.2019 42.3227 61.8633 43.176C62.5246 44.0293 62.8553 45.1493 62.8553 46.536C62.8553 47.7307 62.5459 48.84 61.9272 49.864C61.3086 50.888 60.4019 51.7093 59.2073 52.328C58.0126 52.9253 56.5939 53.224 54.9513 53.224ZM91.0913 30.664V53H86.6113V38.472L80.6273 53H77.2353L71.2193 38.472V53H66.7393V30.664H71.8273L78.9313 47.272L86.0353 30.664H91.0913ZM94.3685 44.072C94.3685 42.28 94.7205 40.6907 95.4245 39.304C96.1498 37.9173 97.1205 36.8507 98.3365 36.104C99.5738 35.3573 100.95 34.984 102.465 34.984C103.787 34.984 104.939 35.2507 105.921 35.784C106.923 36.3173 107.723 36.9893 108.321 37.8V35.272H112.833V53H108.321V50.408C107.745 51.24 106.945 51.9333 105.921 52.488C104.918 53.0213 103.755 53.288 102.433 53.288C100.939 53.288 99.5738 52.904 98.3365 52.136C97.1205 51.368 96.1498 50.2907 95.4245 48.904C94.7205 47.496 94.3685 45.8853 94.3685 44.072ZM108.321 44.136C108.321 43.048 108.107 42.12 107.681 41.352C107.254 40.5627 106.678 39.9653 105.953 39.56C105.227 39.1333 104.449 38.92 103.617 38.92C102.785 38.92 102.017 39.1227 101.312 39.528C100.609 39.9333 100.033 40.5307 99.5845 41.32C99.1578 42.088 98.9445 43.0053 98.9445 44.072C98.9445 45.1387 99.1578 46.0773 99.5845 46.888C100.033 47.6773 100.609 48.2853 101.312 48.712C102.038 49.1387 102.806 49.352 103.617 49.352C104.449 49.352 105.227 49.1493 105.953 48.744C106.678 48.3173 107.254 47.72 107.681 46.952C108.107 46.1627 108.321 45.224 108.321 44.136ZM127.032 35.016C129.144 35.016 130.851 35.688 132.152 37.032C133.453 38.3547 134.104 40.2107 134.104 42.6V53H129.624V43.208C129.624 41.8 129.272 40.7227 128.568 39.976C127.864 39.208 126.904 38.824 125.688 38.824C124.451 38.824 123.469 39.208 122.744 39.976C122.04 40.7227 121.688 41.8 121.688 43.208V53H117.208V35.272H121.688V37.48C122.285 36.712 123.043 36.1147 123.96 35.688C124.899 35.24 125.923 35.016 127.032 35.016ZM137.212 44.072C137.212 42.28 137.564 40.6907 138.268 39.304C138.994 37.9173 139.964 36.8507 141.18 36.104C142.418 35.3573 143.794 34.984 145.308 34.984C146.631 34.984 147.783 35.2507 148.764 35.784C149.767 36.3173 150.567 36.9893 151.164 37.8V35.272H155.676V53H151.164V50.408C150.588 51.24 149.788 51.9333 148.764 52.488C147.762 53.0213 146.599 53.288 145.276 53.288C143.783 53.288 142.418 52.904 141.18 52.136C139.964 51.368 138.994 50.2907 138.268 48.904C137.564 47.496 137.212 45.8853 137.212 44.072ZM151.164 44.136C151.164 43.048 150.951 42.12 150.524 41.352C150.098 40.5627 149.522 39.9653 148.796 39.56C148.071 39.1333 147.292 38.92 146.46 38.92C145.628 38.92 144.86 39.1227 144.156 39.528C143.452 39.9333 142.876 40.5307 142.428 41.32C142.002 42.088 141.788 43.0053 141.788 44.072C141.788 45.1387 142.002 46.0773 142.428 46.888C142.876 47.6773 143.452 48.2853 144.156 48.712C144.882 49.1387 145.65 49.352 146.46 49.352C147.292 49.352 148.071 49.1493 148.796 48.744C149.522 48.3173 150.098 47.72 150.524 46.952C150.951 46.1627 151.164 45.224 151.164 44.136ZM166.996 34.984C168.318 34.984 169.481 35.2507 170.484 35.784C171.486 36.296 172.276 36.968 172.852 37.8V35.272H177.364V53.128C177.364 54.7707 177.033 56.232 176.372 57.512C175.71 58.8133 174.718 59.8373 173.396 60.584C172.073 61.352 170.473 61.736 168.596 61.736C166.078 61.736 164.009 61.1493 162.388 59.976C160.788 58.8027 159.881 57.2027 159.668 55.176H164.116C164.35 55.9867 164.852 56.6267 165.62 57.096C166.409 57.5867 167.358 57.832 168.468 57.832C169.769 57.832 170.825 57.4373 171.636 56.648C172.446 55.88 172.852 54.7067 172.852 53.128V50.376C172.276 51.208 171.476 51.9013 170.452 52.456C169.449 53.0107 168.297 53.288 166.996 53.288C165.502 53.288 164.137 52.904 162.9 52.136C161.662 51.368 160.681 50.2907 159.956 48.904C159.252 47.496 158.9 45.8853 158.9 44.072C158.9 42.28 159.252 40.6907 159.956 39.304C160.681 37.9173 161.652 36.8507 162.868 36.104C164.105 35.3573 165.481 34.984 166.996 34.984ZM172.852 44.136C172.852 43.048 172.638 42.12 172.212 41.352C171.785 40.5627 171.209 39.9653 170.484 39.56C169.758 39.1333 168.98 38.92 168.148 38.92C167.316 38.92 166.548 39.1227 165.844 39.528C165.14 39.9333 164.564 40.5307 164.116 41.32C163.689 42.088 163.476 43.0053 163.476 44.072C163.476 45.1387 163.689 46.0773 164.116 46.888C164.564 47.6773 165.14 48.2853 165.844 48.712C166.569 49.1387 167.337 49.352 168.148 49.352C168.98 49.352 169.758 49.1493 170.484 48.744C171.209 48.3173 171.785 47.72 172.212 46.952C172.638 46.1627 172.852 45.224 172.852 44.136ZM198.219 43.752C198.219 44.392 198.177 44.968 198.091 45.48H185.131C185.238 46.76 185.686 47.7627 186.475 48.488C187.265 49.2133 188.235 49.576 189.387 49.576C191.051 49.576 192.235 48.8613 192.939 47.432H197.771C197.259 49.1387 196.278 50.5467 194.827 51.656C193.377 52.744 191.595 53.288 189.483 53.288C187.777 53.288 186.241 52.9147 184.875 52.168C183.531 51.4 182.475 50.3227 181.707 48.936C180.961 47.5493 180.587 45.9493 180.587 44.136C180.587 42.3013 180.961 40.6907 181.707 39.304C182.454 37.9173 183.499 36.8507 184.843 36.104C186.187 35.3573 187.734 34.984 189.483 34.984C191.169 34.984 192.673 35.3467 193.995 36.072C195.339 36.7973 196.374 37.832 197.099 39.176C197.846 40.4987 198.219 42.024 198.219 43.752ZM193.579 42.472C193.558 41.32 193.142 40.4027 192.331 39.72C191.521 39.016 190.529 38.664 189.355 38.664C188.246 38.664 187.307 39.0053 186.539 39.688C185.793 40.3493 185.334 41.2773 185.163 42.472H193.579Z" fill="white"/>
<rect x="2" y="2" width="224" height="80" stroke="white" stroke-width="4"/>
</svg>
