<svg width="32" height="32" viewBox="0 0 32 32" fill="none" xmlns="http://www.w3.org/2000/svg">
<path d="M30.25 30.25L20.75 20.75L30.25 30.25ZM23.9167 12.8333C23.9167 14.2888 23.63 15.7301 23.073 17.0747C22.516 18.4194 21.6996 19.6413 20.6704 20.6704C19.6413 21.6996 18.4194 22.516 17.0747 23.073C15.7301 23.63 14.2888 23.9167 12.8333 23.9167C11.3778 23.9167 9.93662 23.63 8.59193 23.073C7.24723 22.516 6.02542 21.6996 4.99623 20.6704C3.96705 19.6413 3.15066 18.4194 2.59367 17.0747C2.03668 15.7301 1.75 14.2888 1.75 12.8333C1.75 9.89385 2.9177 7.07476 4.99623 4.99623C7.07476 2.9177 9.89385 1.75 12.8333 1.75C15.7728 1.75 18.5919 2.9177 20.6704 4.99623C22.749 7.07476 23.9167 9.89385 23.9167 12.8333Z" stroke="#232323" stroke-width="2" stroke-linecap="round" stroke-linejoin="round"/>
</svg>
