<svg width="35" height="35" viewBox="0 0 35 35" fill="none" xmlns="http://www.w3.org/2000/svg">
<path fill-rule="evenodd" clip-rule="evenodd" d="M17.5 12.0312C16.0496 12.0312 14.6586 12.6074 13.633 13.633C12.6074 14.6586 12.0312 16.0496 12.0312 17.5C12.0312 18.9504 12.6074 20.3414 13.633 21.367C14.6586 22.3926 16.0496 22.9688 17.5 22.9688C18.9504 22.9688 20.3414 22.3926 21.367 21.367C22.3926 20.3414 22.9688 18.9504 22.9688 17.5C22.9688 16.0496 22.3926 14.6586 21.367 13.633C20.3414 12.6074 18.9504 12.0312 17.5 12.0312ZM14.2188 17.5C14.2188 16.6298 14.5645 15.7952 15.1798 15.1798C15.7952 14.5645 16.6298 14.2188 17.5 14.2188C18.3702 14.2188 19.2048 14.5645 19.8202 15.1798C20.4355 15.7952 20.7812 16.6298 20.7812 17.5C20.7812 18.3702 20.4355 19.2048 19.8202 19.8202C19.2048 20.4355 18.3702 20.7812 17.5 20.7812C16.6298 20.7812 15.7952 20.4355 15.1798 19.8202C14.5645 19.2048 14.2188 18.3702 14.2188 17.5Z" fill="white"/>
<path fill-rule="evenodd" clip-rule="evenodd" d="M17.4634 1.82324C16.8145 1.82324 16.2734 1.82324 15.8301 1.85241C15.3769 1.87128 14.93 1.9649 14.5074 2.12949C14.0207 2.33087 13.5784 2.62616 13.2058 2.99849C12.8332 3.37083 12.5376 3.81291 12.3359 4.29949C12.1245 4.80991 12.0676 5.34949 12.0443 5.93574C12.0419 6.15015 11.9852 6.36045 11.8793 6.54691C11.7734 6.73338 11.622 6.88989 11.439 7.00178C11.2507 7.1046 11.0394 7.15787 10.8249 7.1566C10.6103 7.15532 10.3996 7.09954 10.2126 6.99449C9.69342 6.72033 9.19758 6.50012 8.64925 6.4272C8.12709 6.35852 7.59651 6.39335 7.08781 6.52973C6.57911 6.6661 6.10225 6.90133 5.68446 7.22199C5.33121 7.50619 5.02721 7.84665 4.78467 8.2297C4.53675 8.60012 4.2655 9.06824 3.94175 9.6297L3.90529 9.69387C3.58008 10.2553 3.31029 10.7234 3.11487 11.123C2.91071 11.5401 2.75029 11.9514 2.69196 12.4064C2.55283 13.4607 2.8382 14.5272 3.48529 15.3712C3.82217 15.8101 4.26113 16.1295 4.75696 16.4416C4.94182 16.5509 5.09583 16.7054 5.20451 16.8906C5.31319 17.0758 5.37297 17.2856 5.37821 17.5003C5.37297 17.715 5.31319 17.9248 5.20451 18.11C5.09583 18.2953 4.94182 18.4498 4.75696 18.5591C4.26113 18.8712 3.82363 19.1905 3.48529 19.6295C3.16463 20.0473 2.9294 20.5241 2.79303 21.0328C2.65665 21.5415 2.62182 22.0721 2.6905 22.5943C2.75029 23.0493 2.90925 23.4605 3.11342 23.8776C3.31029 24.2772 3.58008 24.7453 3.90529 25.3068L3.94175 25.3709C4.2655 25.9324 4.53675 26.4005 4.78467 26.771C5.04279 27.1545 5.31988 27.5001 5.68446 27.7772C6.10214 28.0981 6.57895 28.3336 7.08765 28.4702C7.59635 28.6069 8.12699 28.6419 8.64925 28.5735C9.19758 28.5005 9.69342 28.2818 10.2126 28.0062C10.3994 27.9012 10.6099 27.8455 10.8241 27.8442C11.0384 27.843 11.2495 27.8962 11.4376 27.9989C11.6215 28.1099 11.774 28.2661 11.8804 28.4527C11.9868 28.6393 12.0438 28.8501 12.0457 29.0649C12.0676 29.6512 12.1245 30.1907 12.3374 30.7012C12.5388 31.1879 12.834 31.6302 13.2064 32.0027C13.5787 32.3753 14.0208 32.6709 14.5074 32.8726C14.9303 33.0476 15.3678 33.1162 15.8301 33.1468C16.2734 33.1774 16.8145 33.1774 17.4634 33.1774H17.5363C18.1853 33.1774 18.7263 33.1774 19.1697 33.1482C19.6334 33.1162 20.0695 33.0476 20.4924 32.8712C20.9791 32.6698 21.4214 32.3745 21.794 32.0022C22.1665 31.6298 22.4621 31.1877 22.6638 30.7012C22.8753 30.1907 22.9322 29.6512 22.9555 29.0649C22.9576 28.8503 23.0142 28.6397 23.1201 28.4529C23.226 28.2662 23.3776 28.1094 23.5607 27.9974C23.7491 27.8948 23.9605 27.8418 24.1751 27.8433C24.3896 27.8449 24.6002 27.9009 24.7872 28.0062C25.3063 28.2803 25.8022 28.5005 26.3505 28.572C27.4049 28.7111 28.4713 28.4258 29.3153 27.7787C29.6799 27.4987 29.957 27.1545 30.2151 26.771C30.463 26.4005 30.7343 25.9324 31.058 25.3709L31.0945 25.3068C31.4197 24.7453 31.6895 24.2772 31.8849 23.8776C32.089 23.4605 32.2495 23.0478 32.3078 22.5943C32.4469 21.5399 32.1616 20.4735 31.5145 19.6295C31.1776 19.1905 30.7386 18.8712 30.2428 18.5591C30.0579 18.4498 29.9039 18.2953 29.7952 18.11C29.6866 17.9248 29.6268 17.715 29.6215 17.5003C29.6215 17.0949 29.8432 16.6924 30.2428 16.4416C30.7386 16.1295 31.1761 15.8101 31.5145 15.3712C31.8351 14.9534 32.0704 14.4765 32.2067 13.9678C32.3431 13.4591 32.3779 12.9285 32.3093 12.4064C32.2398 11.9582 32.097 11.5246 31.8863 11.123C31.6374 10.6385 31.3733 10.1619 31.0945 9.69387L31.058 9.6297C30.7916 9.15441 30.5105 8.68752 30.2151 8.2297C29.9726 7.84706 29.6685 7.50708 29.3153 7.22345C28.8976 6.90253 28.4208 6.66704 27.9121 6.53042C27.4034 6.39379 26.8728 6.35872 26.3505 6.4272C25.8022 6.50012 25.3063 6.71887 24.7872 6.99449C24.6003 7.09928 24.3899 7.15492 24.1756 7.15619C23.9614 7.15747 23.7503 7.10434 23.5622 7.00178C23.3787 6.89025 23.2266 6.73388 23.1203 6.54739C23.0139 6.36091 22.9567 6.15042 22.954 5.93574C22.9322 5.34949 22.8753 4.80991 22.6624 4.29949C22.461 3.81277 22.1657 3.37049 21.7934 2.99791C21.421 2.62533 20.979 2.32974 20.4924 2.12803C20.0695 1.95303 19.632 1.88449 19.1697 1.85387C18.7263 1.82324 18.1853 1.82324 17.5363 1.82324H17.4634ZM15.3445 4.14928C15.4568 4.10262 15.6274 4.06033 15.9788 4.03553C16.339 4.01074 16.8057 4.01074 17.4999 4.01074C18.194 4.01074 18.6607 4.01074 19.0209 4.03553C19.3724 4.06033 19.543 4.10262 19.6553 4.14928C20.103 4.33449 20.4574 4.68887 20.6426 5.13658C20.7009 5.27658 20.749 5.49678 20.768 6.01741C20.8118 7.17241 21.4082 8.28512 22.467 8.89616C23.5257 9.50866 24.7872 9.46783 25.8095 8.92824C26.2703 8.6847 26.4847 8.61616 26.6363 8.5972C27.1155 8.53389 27.6002 8.66345 27.9838 8.95741C28.0801 9.03178 28.2026 9.15866 28.3995 9.45033C28.6022 9.75074 28.8355 10.1547 29.1826 10.7555C29.5297 11.3564 29.7615 11.7618 29.9205 12.0855C30.0765 12.402 30.1247 12.5712 30.1392 12.6922C30.2026 13.1714 30.073 13.656 29.779 14.0397C29.6857 14.1607 29.5195 14.3124 29.079 14.5895C28.099 15.2049 27.434 16.2782 27.434 17.5003C27.434 18.7224 28.099 19.7957 29.079 20.4112C29.5195 20.6882 29.6857 20.8399 29.779 20.9609C30.0736 21.3445 30.202 21.8287 30.1392 22.3084C30.1247 22.4295 30.0751 22.6001 29.9205 22.9151C29.7615 23.2403 29.5297 23.6443 29.1826 24.2451C28.8355 24.8459 28.6007 25.2499 28.3995 25.5503C28.2026 25.842 28.0801 25.9689 27.9838 26.0432C27.6002 26.3372 27.1155 26.4668 26.6363 26.4034C26.4847 26.3845 26.2718 26.316 25.8095 26.0724C24.7886 25.5328 23.5257 25.492 22.467 26.103C21.4082 26.7155 20.8118 27.8282 20.768 28.9832C20.749 29.5039 20.7009 29.7241 20.6426 29.8641C20.551 30.0854 20.4166 30.2866 20.2472 30.456C20.0778 30.6254 19.8767 30.7598 19.6553 30.8514C19.543 30.898 19.3724 30.9403 19.0209 30.9651C18.6607 30.9899 18.194 30.9899 17.4999 30.9899C16.8057 30.9899 16.339 30.9899 15.9788 30.9651C15.6274 30.9403 15.4568 30.898 15.3445 30.8514C15.1231 30.7598 14.9219 30.6254 14.7525 30.456C14.5831 30.2866 14.4488 30.0854 14.3572 29.8641C14.2988 29.7241 14.2507 29.5039 14.2318 28.9832C14.188 27.8282 13.5915 26.7155 12.5328 26.1045C11.474 25.492 10.2126 25.5328 9.19029 26.0724C8.72946 26.316 8.51508 26.3845 8.36342 26.4034C7.88426 26.4668 7.39957 26.3372 7.01592 26.0432C6.91967 25.9689 6.79717 25.842 6.60029 25.5503C6.326 25.1233 6.06483 24.6881 5.81717 24.2451C5.47008 23.6443 5.23821 23.2389 5.07925 22.9151C4.92321 22.5987 4.87508 22.4295 4.8605 22.3084C4.79719 21.8293 4.92675 21.3446 5.22071 20.9609C5.31404 20.8399 5.48029 20.6882 5.92071 20.4112C6.90071 19.7957 7.56571 18.7224 7.56571 17.5003C7.56571 16.2782 6.90071 15.2049 5.92071 14.5895C5.48029 14.3124 5.31404 14.1607 5.22071 14.0397C4.92675 13.656 4.79719 13.1714 4.8605 12.6922C4.87508 12.5712 4.92467 12.4005 5.07925 12.0855C5.23821 11.7603 5.47008 11.3564 5.81717 10.7555C6.16425 10.1547 6.39904 9.75074 6.60029 9.45033C6.79717 9.15866 6.91967 9.03178 7.01592 8.95741C7.39957 8.66345 7.88426 8.53389 8.36342 8.5972C8.51508 8.61616 8.728 8.6847 9.19029 8.92824C10.2111 9.46783 11.474 9.50866 12.5328 8.89616C13.5915 8.28512 14.188 7.17241 14.2318 6.01741C14.2507 5.49678 14.2988 5.27658 14.3572 5.13658C14.5424 4.68887 14.8968 4.33449 15.3445 4.14928Z" fill="white"/>
</svg>
